<?xml version="1.0" encoding="utf-8"?>
<!-- Generator: Adobe Illustrator 15.0.0, SVG Export Plug-In . SVG Version: 6.00 Build 0)  -->
<!DOCTYPE svg PUBLIC "-//W3C//DTD SVG 1.1//EN" "http://www.w3.org/Graphics/SVG/1.1/DTD/svg11.dtd">
<svg version="1.1" xmlns="http://www.w3.org/2000/svg" xmlns:xlink="http://www.w3.org/1999/xlink" x="0px" y="0px" width="307px"
	 height="58px" viewBox="0 0 307 58" enable-background="new 0 0 307 58" xml:space="preserve">
<g id="Layer_1" display="none">
	<g id="Layer_1_1_" display="inline">
		<path fill="#0093D0" d="M208,26h6v3h0.545c1.708-2,4.646-3.858,7.49-3.858c7.164,0,8.965,4.278,8.965,10.367V51h-7V36.748
			c0-4.045-0.917-6.043-4.048-6.043c-3.652,0-4.952,2.046-4.952,7.041V51h-7V26z"/>
		<path fill="#0093D0" d="M191.229,25.374c7.754,0,12.75,5.14,12.75,12.99c0,7.804-4.996,12.94-12.75,12.94
			c-7.709,0-12.703-5.138-12.703-12.94C178.523,30.514,183.52,25.374,191.229,25.374 M191.229,46.215
			c4.614,0,5.994-3.947,5.994-7.851c0-3.95-1.38-7.897-5.994-7.897c-4.568,0-5.946,3.947-5.946,7.897
			C185.281,42.268,186.659,46.215,191.229,46.215"/>
		<polygon fill="#0093D0" points="154,44.875 166.459,30 155,30 155,25 175,25 175,30.226 162.662,45 176,45 176,50 154,50 		"/>
		<path fill="#0093D0" d="M122,25h6v5h0.52c1.234-3,4.646-5.227,7.929-5.227c0.475,0,0.553,0.106,1.553,0.249v6.282
			c-1-0.146-1.573-0.239-2.382-0.239c-4.949,0-6.618,3.565-6.618,7.898V50h-7L122,25L122,25z"/>
		<path fill="#0093D0" d="M105.966,25.374c7.756,0,12.751,5.14,12.751,12.99c0,7.804-4.995,12.94-12.751,12.94
			c-7.709,0-12.704-5.138-12.704-12.94C93.262,30.514,98.257,25.374,105.966,25.374 M105.966,46.215
			c4.615,0,5.996-3.947,5.996-7.851c0-3.95-1.381-7.897-5.996-7.897c-4.568,0-5.948,3.947-5.948,7.897
			C100.018,42.268,101.398,46.215,105.966,46.215"/>
		<polygon fill="#0093D0" points="60,17 68,17 68,30 81,30 81,17 89,17 89,51 81,51 81,36 68,36 68,51 60,51 		"/>
		<path fill="#8DC63F" d="M35.512,26H38.7l8.094,20.945L54.363,26h3L46.698,54.398c-1.713,4.141-2.682,5.365-6.443,5.365
			C39.065,59.715,38,59.751,38,59.564V57.04c1,0.144,1.351,0.239,2.017,0.239c2.667,0,3.269-1.571,4.271-3.855l1.039-2.881
			L35.512,26z"/>
		<path fill="#8DC63F" d="M0,26h3v4H2.948c1.594-3,4.204-4.713,8.167-4.713c3.284,0,6.23,1.642,7.149,4.88
			c1.497-3.238,4.413-4.774,7.699-4.774c5.458,0,8.037,2.844,8.037,8.653V51h-3V34.189c0-4.047-1.218-6.235-5.564-6.235
			c-5.268,0-6.436,4.282-6.436,8.854V51h-3V34.046c0-3.332-1.524-6.092-5.387-6.092C5.345,27.954,3,31.856,3,36.997V51H0V26z"/>
		<g>
			<polygon fill="#0093D0" points="145.816,0 146.18,9.042 149.465,4.122 146.807,9.401 154.389,5.528 147.166,10.028 
				157.969,10.391 147.166,10.75 153.62,14.93 146.807,11.375 149.783,17.104 146.18,11.737 145.816,15.971 145.456,11.737 
				141.918,17.168 144.83,11.375 138.591,14.546 144.471,10.75 132.645,10.261 144.471,10.028 136.16,4.634 144.83,9.401 
				142.109,3.93 145.456,9.042 			"/>
			<path fill="#0093D0" d="M143.454,21.542l-0.669,7.755c0.389-1.235,1.449-3.676,4.271-5.586c0,0,0.813-0.635,1.342-1.265
				l-0.013-0.904c1.173,0,1.614-0.573,1.614-0.573v-0.733c0-0.274-1.838-0.683-1.838-0.683l0.105-1.937
				c0.519-0.188,0.731-0.515,0.731-0.515v-0.654c0-0.245-2-0.492-2-0.492v-3.08c0-0.952-1.026-1.278-1.026-1.278l-0.248-2.986
				l-0.418,2.986c0,0-1.308,0.326-1.308,1.278v3.08c0,0-1,0.247-1,0.492v0.654c0,0,0.081,0.326,0.601,0.515l0.059,1.937
				c0,0-1.658,0.408-1.658,0.683v0.733C142,20.969,142.284,21.542,143.454,21.542 M147.463,35.944c0,0,1.143-0.879,1.863-1.74
				l-0.602-7.542c-0.242,0.252-0.675,0.693-0.935,0.899c-0.334,0.262-4.373,3.252-5.438,6.558l-0.754,9.468
				C142.121,41.912,143.596,38.561,147.463,35.944 M168.262,55.51l-1.488-0.563l-1.561-0.749l-1.207-0.573l-1.818-0.359
				l-1.658,0.397l-0.809-0.406l-1.007,0.753l-0.653-0.703l-1.461-0.559l-1.561,1.361l-0.707,0.051l-1.107-0.102l-1.711-0.201
				l-0.006,0.002l-0.087-1.557l-0.651-0.025l-0.983-12.32c-0.326,0.343-0.925,0.954-1.285,1.238
				c-0.457,0.359-5.983,4.449-7.426,8.969l-0.171,2.113l-0.653,0.025l-0.076,1.362l-2.407,0.343l-1.463-0.455l-1.06,0.305
				l-0.804-0.305l-0.957,0.252l-1.713-0.4l-1.662,1.105l-1.058,0.069L128.799,55h-1.007l-0.401,0.588l-1.113-0.203l-0.307,0.12
				l-2.188-0.024L105.913,58h80.131L168.262,55.51z"/>
		</g>
		<g>
			<path fill="#414042" d="M132.352,65.521v-0.677h3.74v0.677h-1.521v6.223h-0.696v-6.223H132.352z"/>
			<path fill="#414042" d="M137.205,64.672h0.648v2.885c0.264-0.351,0.553-0.611,0.869-0.785c0.313-0.174,0.655-0.261,1.023-0.261
				c0.378,0,0.712,0.097,1.005,0.29c0.291,0.194,0.508,0.455,0.646,0.781c0.139,0.326,0.209,0.838,0.209,1.535v2.627h-0.649v-2.434
				c0-0.588-0.022-0.98-0.067-1.179c-0.082-0.338-0.228-0.592-0.439-0.762c-0.211-0.17-0.488-0.256-0.832-0.256
				c-0.393,0-0.744,0.131-1.055,0.395c-0.313,0.263-0.517,0.589-0.615,0.976c-0.063,0.25-0.094,0.713-0.094,1.389v1.871h-0.648
				V64.672L137.205,64.672z"/>
			<path fill="#414042" d="M147.484,70.051l0.549,0.291c-0.18,0.355-0.387,0.645-0.623,0.863c-0.234,0.219-0.5,0.385-0.793,0.498
				c-0.295,0.115-0.627,0.172-0.999,0.172c-0.823,0-1.468-0.273-1.931-0.818c-0.465-0.545-0.697-1.162-0.697-1.85
				c0-0.646,0.197-1.225,0.59-1.73c0.498-0.645,1.166-0.966,2.001-0.966c0.86,0,1.548,0.329,2.062,0.989
				c0.365,0.466,0.551,1.047,0.558,1.744h-4.541c0.013,0.593,0.198,1.078,0.563,1.457c0.36,0.379,0.81,0.568,1.342,0.568
				c0.256,0,0.506-0.045,0.75-0.136c0.242-0.09,0.449-0.211,0.619-0.358C147.104,70.625,147.287,70.385,147.484,70.051z
				 M147.484,68.677c-0.086-0.351-0.213-0.63-0.377-0.839c-0.166-0.21-0.385-0.379-0.658-0.507
				c-0.271-0.128-0.559-0.192-0.859-0.192c-0.494,0-0.92,0.161-1.277,0.483c-0.26,0.233-0.455,0.586-0.59,1.055H147.484z"/>
			<path fill="#414042" d="M158.977,66.126l-0.537,0.417c-0.297-0.391-0.653-0.688-1.068-0.889c-0.416-0.201-0.873-0.303-1.37-0.303
				c-0.545,0-1.049,0.133-1.515,0.396c-0.463,0.265-0.821,0.619-1.077,1.063c-0.255,0.445-0.384,0.947-0.384,1.504
				c0,0.841,0.285,1.543,0.856,2.105c0.57,0.563,1.29,0.844,2.159,0.844c0.955,0,1.755-0.379,2.398-1.135l0.537,0.412
				c-0.34,0.438-0.765,0.775-1.272,1.016c-0.509,0.238-1.077,0.358-1.704,0.358c-1.193,0-2.137-0.401-2.826-1.205
				c-0.578-0.679-0.867-1.497-0.867-2.457c0-1.01,0.352-1.858,1.051-2.548c0.701-0.689,1.578-1.035,2.634-1.035
				c0.637,0,1.212,0.128,1.725,0.383C158.229,65.311,158.648,65.666,158.977,66.126z"/>
			<path fill="#414042" d="M160.486,64.846h0.682v6.898h-0.682V64.846z"/>
			<path fill="#414042" d="M162.973,71.744v-6.898h0.148l4.541,5.287v-5.287h0.674v6.898h-0.154l-4.504-5.225v5.225H162.973z"/>
			<path fill="#414042" d="M174.479,66.643h0.649v4.064c0,0.717-0.063,1.24-0.187,1.57c-0.17,0.47-0.465,0.83-0.885,1.084
				c-0.423,0.254-0.928,0.38-1.519,0.38c-0.435,0-0.822-0.062-1.166-0.187c-0.347-0.123-0.626-0.289-0.843-0.498
				s-0.416-0.515-0.6-0.914h0.705c0.192,0.338,0.439,0.588,0.744,0.75c0.303,0.162,0.68,0.243,1.128,0.243
				c0.442,0,0.817-0.084,1.122-0.25c0.305-0.167,0.521-0.377,0.653-0.629c0.129-0.252,0.194-0.659,0.194-1.223v-0.263
				c-0.246,0.313-0.545,0.554-0.896,0.72c-0.354,0.168-0.729,0.252-1.124,0.252c-0.464,0-0.901-0.117-1.31-0.351
				c-0.41-0.232-0.726-0.547-0.947-0.939c-0.223-0.393-0.334-0.827-0.334-1.299c0-0.473,0.115-0.912,0.348-1.319
				c0.232-0.408,0.555-0.731,0.965-0.969c0.409-0.238,0.842-0.356,1.297-0.356c0.379,0,0.73,0.079,1.058,0.237
				c0.325,0.157,0.642,0.418,0.944,0.778v-0.883H174.479z M172.563,67.145c-0.367,0-0.709,0.09-1.024,0.27s-0.563,0.429-0.742,0.745
				c-0.18,0.317-0.271,0.661-0.271,1.028c0,0.562,0.187,1.023,0.558,1.39s0.853,0.549,1.442,0.549c0.598,0,1.076-0.183,1.439-0.545
				c0.364-0.361,0.547-0.839,0.547-1.431c0-0.385-0.084-0.728-0.25-1.028c-0.168-0.302-0.406-0.54-0.711-0.715
				C173.244,67.23,172.914,67.145,172.563,67.145z"/>
			<path fill="#414042" d="M176.512,66.643h0.663v0.744c0.197-0.293,0.406-0.513,0.626-0.658c0.221-0.145,0.448-0.218,0.688-0.218
				c0.18,0,0.371,0.058,0.574,0.173l-0.338,0.555c-0.138-0.061-0.25-0.09-0.345-0.09c-0.216,0-0.425,0.091-0.626,0.271
				c-0.199,0.181-0.354,0.459-0.459,0.837c-0.081,0.29-0.12,0.878-0.12,1.764v1.727h-0.663V66.643z"/>
			<path fill="#414042" d="M182.241,66.511c0.776,0,1.422,0.284,1.933,0.854c0.465,0.52,0.697,1.134,0.697,1.844
				c0,0.713-0.245,1.336-0.736,1.869c-0.49,0.532-1.121,0.799-1.894,0.799c-0.775,0-1.408-0.267-1.898-0.799
				c-0.491-0.533-0.735-1.156-0.735-1.869c0-0.707,0.231-1.319,0.697-1.838C180.814,66.797,181.46,66.511,182.241,66.511z
				 M182.238,67.152c-0.54,0-1.004,0.201-1.393,0.604c-0.388,0.403-0.582,0.892-0.582,1.463c0,0.369,0.09,0.714,0.266,1.031
				c0.178,0.319,0.416,0.565,0.718,0.739c0.301,0.173,0.631,0.261,0.991,0.261c0.359,0,0.689-0.088,0.99-0.261
				c0.303-0.174,0.541-0.42,0.719-0.739c0.177-0.317,0.265-0.662,0.265-1.031c0-0.571-0.194-1.06-0.584-1.463
				S182.775,67.152,182.238,67.152z"/>
			<path fill="#414042" d="M186.227,66.643h0.649v2.381c0,0.582,0.03,0.982,0.092,1.201c0.095,0.313,0.271,0.561,0.533,0.74
				c0.263,0.182,0.573,0.271,0.937,0.271c0.362,0,0.67-0.088,0.922-0.264c0.252-0.178,0.427-0.41,0.522-0.697
				c0.063-0.196,0.097-0.613,0.097-1.252v-2.383h0.664v2.506c0,0.703-0.08,1.231-0.244,1.588c-0.162,0.356-0.406,0.637-0.732,0.838
				s-0.734,0.303-1.227,0.303s-0.902-0.102-1.231-0.303s-0.575-0.482-0.737-0.844c-0.162-0.362-0.244-0.904-0.244-1.629V66.643
				L186.227,66.643z"/>
			<path fill="#414042" d="M192.331,66.643h0.649v0.938c0.256-0.357,0.552-0.624,0.886-0.803c0.334-0.178,0.704-0.268,1.116-0.268
				c0.718,0,1.33,0.262,1.84,0.782c0.51,0.522,0.765,1.149,0.765,1.886c0,0.75-0.252,1.389-0.758,1.911
				c-0.505,0.522-1.114,0.785-1.828,0.785c-0.401,0-0.771-0.084-1.106-0.254c-0.336-0.168-0.642-0.42-0.912-0.754v2.741h-0.65
				L192.331,66.643L192.331,66.643z M194.93,67.145c-0.562,0-1.033,0.197-1.418,0.595c-0.386,0.396-0.576,0.891-0.576,1.479
				c0,0.387,0.086,0.735,0.256,1.045c0.172,0.31,0.418,0.555,0.735,0.734c0.32,0.182,0.656,0.271,1.013,0.271
				c0.349,0,0.676-0.092,0.982-0.273s0.553-0.438,0.732-0.766c0.182-0.328,0.273-0.672,0.273-1.031c0-0.361-0.09-0.705-0.271-1.029
				s-0.423-0.578-0.729-0.757C195.624,67.232,195.29,67.145,194.93,67.145z"/>
			<path fill="#414042" d="M202.016,64.846h3.418v0.676h-2.736v2.162h2.736v0.674h-2.736v3.388h-0.682V64.846L202.016,64.846z"/>
			<path fill="#414042" d="M211.779,66.643v5.103h-0.641v-0.877c-0.271,0.334-0.578,0.586-0.916,0.754
				c-0.339,0.17-0.709,0.254-1.111,0.254c-0.713,0-1.323-0.262-1.829-0.785c-0.507-0.522-0.759-1.161-0.759-1.911
				c0-0.734,0.256-1.361,0.767-1.886c0.51-0.521,1.123-0.782,1.841-0.782c0.415,0,0.79,0.09,1.125,0.268
				c0.335,0.179,0.631,0.445,0.885,0.803v-0.938h0.639V66.643z M209.186,67.145c-0.361,0-0.695,0.09-1.002,0.27
				c-0.306,0.179-0.549,0.432-0.729,0.757c-0.182,0.324-0.271,0.668-0.271,1.029c0,0.358,0.092,0.702,0.273,1.03
				s0.428,0.584,0.734,0.767c0.308,0.183,0.637,0.272,0.988,0.272c0.355,0,0.692-0.09,1.012-0.271
				c0.316-0.181,0.563-0.426,0.733-0.733c0.171-0.311,0.257-0.658,0.257-1.046c0-0.59-0.191-1.084-0.576-1.479
				C210.221,67.344,209.747,67.145,209.186,67.145z"/>
			<path fill="#414042" d="M213.475,66.643h0.648v0.881c0.227-0.324,0.458-0.563,0.695-0.713c0.328-0.199,0.675-0.3,1.037-0.3
				c0.244,0,0.477,0.048,0.695,0.146c0.221,0.097,0.4,0.226,0.539,0.387c0.139,0.16,0.26,0.392,0.362,0.69
				c0.216-0.399,0.485-0.703,0.81-0.911c0.325-0.208,0.674-0.313,1.047-0.313c0.349,0,0.656,0.089,0.922,0.267
				c0.269,0.18,0.465,0.429,0.597,0.746c0.129,0.318,0.192,0.797,0.192,1.437v2.785h-0.662V68.96c0-0.548-0.039-0.924-0.115-1.129
				c-0.077-0.204-0.209-0.369-0.396-0.494c-0.187-0.125-0.408-0.188-0.668-0.188c-0.314,0-0.602,0.095-0.861,0.281
				c-0.26,0.188-0.45,0.438-0.571,0.75c-0.119,0.313-0.181,0.836-0.181,1.566v1.998h-0.648v-2.612c0-0.616-0.038-1.034-0.114-1.255
				c-0.075-0.22-0.206-0.396-0.396-0.529c-0.188-0.133-0.412-0.199-0.672-0.199c-0.301,0-0.582,0.093-0.842,0.273
				c-0.263,0.184-0.455,0.43-0.58,0.739s-0.188,0.782-0.188,1.421v2.162h-0.649V66.643L213.475,66.643z"/>
			<path fill="#414042" d="M222.854,64.541c0.146,0,0.272,0.053,0.377,0.16c0.104,0.105,0.158,0.234,0.158,0.384
				c0,0.147-0.054,0.272-0.158,0.38c-0.104,0.107-0.23,0.159-0.377,0.159s-0.271-0.054-0.375-0.159s-0.156-0.232-0.156-0.38
				c0-0.149,0.052-0.278,0.156-0.384C222.583,64.594,222.707,64.541,222.854,64.541z M222.529,66.643h0.648v5.103h-0.648V66.643z"/>
			<path fill="#414042" d="M224.669,64.672h0.649v7.072h-0.649V64.672z"/>
			<path fill="#414042" d="M226.363,66.643h0.687l1.734,3.928l1.684-3.928h0.691l-3.011,6.967h-0.687l0.972-2.252L226.363,66.643z"
				/>
		</g>
	</g>
	<g id="Layer_1_copy">
		<path display="inline" fill="#FFFFFF" d="M208,26h6v3h0.545c1.708-2,4.646-3.858,7.49-3.858c7.164,0,8.965,4.278,8.965,10.367V51
			h-7V36.748c0-4.045-0.917-6.043-4.048-6.043c-3.652,0-4.952,2.046-4.952,7.041V51h-7V26z"/>
		<path display="inline" fill="#FFFFFF" d="M191.229,25.374c7.754,0,12.75,5.14,12.75,12.99c0,7.804-4.996,12.94-12.75,12.94
			c-7.709,0-12.703-5.138-12.703-12.94C178.523,30.514,183.52,25.374,191.229,25.374 M191.229,46.215
			c4.614,0,5.994-3.947,5.994-7.851c0-3.95-1.38-7.897-5.994-7.897c-4.568,0-5.946,3.947-5.946,7.897
			C185.281,42.268,186.659,46.215,191.229,46.215"/>
		<polygon display="inline" fill="#FFFFFF" points="154,44.875 166.459,30 155,30 155,25 175,25 175,30.226 162.662,45 176,45 
			176,50 154,50 		"/>
		<path display="inline" fill="#FFFFFF" d="M122,25h6v5h0.52c1.234-3,4.646-5.227,7.929-5.227c0.475,0,0.553,0.106,1.553,0.249
			v6.282c-1-0.146-1.573-0.239-2.382-0.239c-4.949,0-6.618,3.565-6.618,7.898V50h-7L122,25L122,25z"/>
		<path display="inline" fill="#FFFFFF" d="M105.966,25.374c7.756,0,12.751,5.14,12.751,12.99c0,7.804-4.995,12.94-12.751,12.94
			c-7.709,0-12.704-5.138-12.704-12.94C93.262,30.514,98.257,25.374,105.966,25.374 M105.966,46.215
			c4.615,0,5.996-3.947,5.996-7.851c0-3.95-1.381-7.897-5.996-7.897c-4.568,0-5.948,3.947-5.948,7.897
			C100.018,42.268,101.398,46.215,105.966,46.215"/>
		<polygon display="inline" fill="#FFFFFF" points="60,17 68,17 68,30 81,30 81,17 89,17 89,51 81,51 81,36 68,36 68,51 60,51 		"/>
		<path display="inline" fill="#FFFFFF" d="M35.512,26H38.7l8.094,20.945L54.363,26h3L46.698,54.398
			c-1.713,4.141-2.682,5.365-6.443,5.365C39.065,59.715,38,59.751,38,59.564V57.04c1,0.144,1.351,0.239,2.017,0.239
			c2.667,0,3.269-1.571,4.271-3.855l1.039-2.881L35.512,26z"/>
		<path display="inline" fill="#FFFFFF" d="M0,26h3v4H2.948c1.594-3,4.204-4.713,8.167-4.713c3.284,0,6.23,1.642,7.149,4.88
			c1.497-3.238,4.413-4.774,7.699-4.774c5.458,0,8.037,2.844,8.037,8.653V51h-3V34.189c0-4.047-1.218-6.235-5.564-6.235
			c-5.268,0-6.436,4.282-6.436,8.854V51h-3V34.046c0-3.332-1.524-6.092-5.387-6.092C5.345,27.954,3,31.856,3,36.997V51H0V26z"/>
		<g display="inline">
			<polygon fill="#FFFFFF" points="145.816,0 146.18,9.042 149.465,4.122 146.807,9.401 154.389,5.528 147.166,10.028 
				157.969,10.391 147.166,10.75 153.62,14.93 146.807,11.375 149.783,17.104 146.18,11.737 145.816,15.971 145.456,11.737 
				141.918,17.168 144.83,11.375 138.591,14.546 144.471,10.75 132.645,10.261 144.471,10.028 136.16,4.634 144.83,9.401 
				142.109,3.93 145.456,9.042 			"/>
			<path fill="#FFFFFF" d="M143.454,21.542l-0.669,7.755c0.389-1.235,1.449-3.676,4.271-5.586c0,0,0.813-0.635,1.342-1.265
				l-0.013-0.904c1.173,0,1.614-0.573,1.614-0.573v-0.733c0-0.274-1.838-0.683-1.838-0.683l0.105-1.937
				c0.519-0.188,0.731-0.515,0.731-0.515v-0.654c0-0.245-2-0.492-2-0.492v-3.08c0-0.952-1.026-1.278-1.026-1.278l-0.248-2.986
				l-0.418,2.986c0,0-1.308,0.326-1.308,1.278v3.08c0,0-1,0.247-1,0.492v0.654c0,0,0.081,0.326,0.601,0.515l0.059,1.937
				c0,0-1.658,0.408-1.658,0.683v0.733C142,20.969,142.284,21.542,143.454,21.542 M147.463,35.944c0,0,1.143-0.879,1.863-1.74
				l-0.602-7.542c-0.242,0.252-0.675,0.693-0.935,0.899c-0.334,0.262-4.373,3.252-5.438,6.558l-0.754,9.468
				C142.121,41.912,143.596,38.561,147.463,35.944 M168.262,55.51l-1.488-0.563l-1.561-0.749l-1.207-0.573l-1.818-0.359
				l-1.658,0.397l-0.809-0.406l-1.007,0.753l-0.653-0.703l-1.461-0.559l-1.561,1.361l-0.707,0.051l-1.107-0.102l-1.711-0.201
				l-0.006,0.002l-0.087-1.557l-0.651-0.025l-0.983-12.32c-0.326,0.343-0.925,0.954-1.285,1.238
				c-0.457,0.359-5.983,4.449-7.426,8.969l-0.171,2.113l-0.653,0.025l-0.076,1.362l-2.407,0.343l-1.463-0.455l-1.06,0.305
				l-0.804-0.305l-0.957,0.252l-1.713-0.4l-1.662,1.105l-1.058,0.069L128.799,55h-1.007l-0.401,0.588l-1.113-0.203l-0.307,0.12
				l-2.188-0.024L105.913,58h80.131L168.262,55.51z"/>
		</g>
		<g display="inline" opacity="0.8">
			<path fill="#FFFFFF" d="M132.352,65.521v-0.677h3.74v0.677h-1.521v6.223h-0.696v-6.223H132.352z"/>
			<path fill="#FFFFFF" d="M137.205,64.672h0.648v2.885c0.264-0.351,0.553-0.611,0.869-0.785c0.313-0.174,0.655-0.261,1.023-0.261
				c0.378,0,0.712,0.097,1.005,0.29c0.291,0.194,0.508,0.455,0.646,0.781c0.139,0.326,0.209,0.838,0.209,1.535v2.627h-0.649v-2.434
				c0-0.588-0.022-0.98-0.067-1.179c-0.082-0.338-0.228-0.592-0.439-0.762c-0.211-0.17-0.488-0.256-0.832-0.256
				c-0.393,0-0.744,0.131-1.055,0.395c-0.313,0.263-0.517,0.589-0.615,0.976c-0.063,0.25-0.094,0.713-0.094,1.389v1.871h-0.648
				V64.672L137.205,64.672z"/>
			<path fill="#FFFFFF" d="M147.484,70.051l0.549,0.291c-0.18,0.355-0.387,0.645-0.623,0.863c-0.234,0.219-0.5,0.385-0.793,0.498
				c-0.295,0.115-0.627,0.172-0.999,0.172c-0.823,0-1.468-0.273-1.931-0.818c-0.465-0.545-0.697-1.162-0.697-1.85
				c0-0.646,0.197-1.225,0.59-1.73c0.498-0.645,1.166-0.966,2.001-0.966c0.86,0,1.548,0.329,2.062,0.989
				c0.365,0.466,0.551,1.047,0.558,1.744h-4.541c0.013,0.593,0.198,1.078,0.563,1.457c0.36,0.379,0.81,0.568,1.342,0.568
				c0.256,0,0.506-0.045,0.75-0.136c0.242-0.09,0.449-0.211,0.619-0.358C147.104,70.625,147.287,70.385,147.484,70.051z
				 M147.484,68.677c-0.086-0.351-0.213-0.63-0.377-0.839c-0.166-0.21-0.385-0.379-0.658-0.507
				c-0.271-0.128-0.559-0.192-0.859-0.192c-0.494,0-0.92,0.161-1.277,0.483c-0.26,0.233-0.455,0.586-0.59,1.055H147.484z"/>
			<path fill="#FFFFFF" d="M158.977,66.126l-0.537,0.417c-0.297-0.391-0.653-0.688-1.068-0.889c-0.416-0.201-0.873-0.303-1.37-0.303
				c-0.545,0-1.049,0.133-1.515,0.396c-0.463,0.265-0.821,0.619-1.077,1.063c-0.255,0.445-0.384,0.947-0.384,1.504
				c0,0.841,0.285,1.543,0.856,2.105c0.57,0.563,1.29,0.844,2.159,0.844c0.955,0,1.755-0.379,2.398-1.135l0.537,0.412
				c-0.34,0.438-0.765,0.775-1.272,1.016c-0.509,0.238-1.077,0.358-1.704,0.358c-1.193,0-2.137-0.401-2.826-1.205
				c-0.578-0.679-0.867-1.497-0.867-2.457c0-1.01,0.352-1.858,1.051-2.548c0.701-0.689,1.578-1.035,2.634-1.035
				c0.637,0,1.212,0.128,1.725,0.383C158.229,65.311,158.648,65.666,158.977,66.126z"/>
			<path fill="#FFFFFF" d="M160.486,64.846h0.682v6.898h-0.682V64.846z"/>
			<path fill="#FFFFFF" d="M162.973,71.744v-6.898h0.148l4.541,5.287v-5.287h0.674v6.898h-0.154l-4.504-5.225v5.225H162.973z"/>
			<path fill="#FFFFFF" d="M174.479,66.643h0.649v4.064c0,0.717-0.063,1.24-0.187,1.57c-0.17,0.47-0.465,0.83-0.885,1.084
				c-0.423,0.254-0.928,0.38-1.519,0.38c-0.435,0-0.822-0.062-1.166-0.187c-0.347-0.123-0.626-0.289-0.843-0.498
				s-0.416-0.515-0.6-0.914h0.705c0.192,0.338,0.439,0.588,0.744,0.75c0.303,0.162,0.68,0.243,1.128,0.243
				c0.442,0,0.817-0.084,1.122-0.25c0.305-0.167,0.521-0.377,0.653-0.629c0.129-0.252,0.194-0.659,0.194-1.223v-0.263
				c-0.246,0.313-0.545,0.554-0.896,0.72c-0.354,0.168-0.729,0.252-1.124,0.252c-0.464,0-0.901-0.117-1.31-0.351
				c-0.41-0.232-0.726-0.547-0.947-0.939c-0.223-0.393-0.334-0.827-0.334-1.299c0-0.473,0.115-0.912,0.348-1.319
				c0.232-0.408,0.555-0.731,0.965-0.969c0.409-0.238,0.842-0.356,1.297-0.356c0.379,0,0.73,0.079,1.058,0.237
				c0.325,0.157,0.642,0.418,0.944,0.778v-0.883H174.479z M172.563,67.145c-0.367,0-0.709,0.09-1.024,0.27s-0.563,0.429-0.742,0.745
				c-0.18,0.317-0.271,0.661-0.271,1.028c0,0.562,0.187,1.023,0.558,1.39s0.853,0.549,1.442,0.549c0.598,0,1.076-0.183,1.439-0.545
				c0.364-0.361,0.547-0.839,0.547-1.431c0-0.385-0.084-0.728-0.25-1.028c-0.168-0.302-0.406-0.54-0.711-0.715
				C173.244,67.23,172.914,67.145,172.563,67.145z"/>
			<path fill="#FFFFFF" d="M176.512,66.643h0.663v0.744c0.197-0.293,0.406-0.513,0.626-0.658c0.221-0.145,0.448-0.218,0.688-0.218
				c0.18,0,0.371,0.058,0.574,0.173l-0.338,0.555c-0.138-0.061-0.25-0.09-0.345-0.09c-0.216,0-0.425,0.091-0.626,0.271
				c-0.199,0.181-0.354,0.459-0.459,0.837c-0.081,0.29-0.12,0.878-0.12,1.764v1.727h-0.663V66.643z"/>
			<path fill="#FFFFFF" d="M182.241,66.511c0.776,0,1.422,0.284,1.933,0.854c0.465,0.52,0.697,1.134,0.697,1.844
				c0,0.713-0.245,1.336-0.736,1.869c-0.49,0.532-1.121,0.799-1.894,0.799c-0.775,0-1.408-0.267-1.898-0.799
				c-0.491-0.533-0.735-1.156-0.735-1.869c0-0.707,0.231-1.319,0.697-1.838C180.814,66.797,181.46,66.511,182.241,66.511z
				 M182.238,67.152c-0.54,0-1.004,0.201-1.393,0.604c-0.388,0.403-0.582,0.892-0.582,1.463c0,0.369,0.09,0.714,0.266,1.031
				c0.178,0.319,0.416,0.565,0.718,0.739c0.301,0.173,0.631,0.261,0.991,0.261c0.359,0,0.689-0.088,0.99-0.261
				c0.303-0.174,0.541-0.42,0.719-0.739c0.177-0.317,0.265-0.662,0.265-1.031c0-0.571-0.194-1.06-0.584-1.463
				S182.775,67.152,182.238,67.152z"/>
			<path fill="#FFFFFF" d="M186.227,66.643h0.649v2.381c0,0.582,0.03,0.982,0.092,1.201c0.095,0.313,0.271,0.561,0.533,0.74
				c0.263,0.182,0.573,0.271,0.937,0.271c0.362,0,0.67-0.088,0.922-0.264c0.252-0.178,0.427-0.41,0.522-0.697
				c0.063-0.196,0.097-0.613,0.097-1.252v-2.383h0.664v2.506c0,0.703-0.08,1.231-0.244,1.588c-0.162,0.356-0.406,0.637-0.732,0.838
				s-0.734,0.303-1.227,0.303s-0.902-0.102-1.231-0.303s-0.575-0.482-0.737-0.844c-0.162-0.362-0.244-0.904-0.244-1.629V66.643
				L186.227,66.643z"/>
			<path fill="#FFFFFF" d="M192.331,66.643h0.649v0.938c0.256-0.357,0.552-0.624,0.886-0.803c0.334-0.178,0.704-0.268,1.116-0.268
				c0.718,0,1.33,0.262,1.84,0.782c0.51,0.522,0.765,1.149,0.765,1.886c0,0.75-0.252,1.389-0.758,1.911
				c-0.505,0.522-1.114,0.785-1.828,0.785c-0.401,0-0.771-0.084-1.106-0.254c-0.336-0.168-0.642-0.42-0.912-0.754v2.741h-0.65
				L192.331,66.643L192.331,66.643z M194.93,67.145c-0.562,0-1.033,0.197-1.418,0.595c-0.386,0.396-0.576,0.891-0.576,1.479
				c0,0.387,0.086,0.735,0.256,1.045c0.172,0.31,0.418,0.555,0.735,0.734c0.32,0.182,0.656,0.271,1.013,0.271
				c0.349,0,0.676-0.092,0.982-0.273s0.553-0.438,0.732-0.766c0.182-0.328,0.273-0.672,0.273-1.031c0-0.361-0.09-0.705-0.271-1.029
				s-0.423-0.578-0.729-0.757C195.624,67.232,195.29,67.145,194.93,67.145z"/>
			<path fill="#FFFFFF" d="M202.016,64.846h3.418v0.676h-2.736v2.162h2.736v0.674h-2.736v3.388h-0.682V64.846L202.016,64.846z"/>
			<path fill="#FFFFFF" d="M211.779,66.643v5.103h-0.641v-0.877c-0.271,0.334-0.578,0.586-0.916,0.754
				c-0.339,0.17-0.709,0.254-1.111,0.254c-0.713,0-1.323-0.262-1.829-0.785c-0.507-0.522-0.759-1.161-0.759-1.911
				c0-0.734,0.256-1.361,0.767-1.886c0.51-0.521,1.123-0.782,1.841-0.782c0.415,0,0.79,0.09,1.125,0.268
				c0.335,0.179,0.631,0.445,0.885,0.803v-0.938h0.639V66.643z M209.186,67.145c-0.361,0-0.695,0.09-1.002,0.27
				c-0.306,0.179-0.549,0.432-0.729,0.757c-0.182,0.324-0.271,0.668-0.271,1.029c0,0.358,0.092,0.702,0.273,1.03
				s0.428,0.584,0.734,0.767c0.308,0.183,0.637,0.272,0.988,0.272c0.355,0,0.692-0.09,1.012-0.271
				c0.316-0.181,0.563-0.426,0.733-0.733c0.171-0.311,0.257-0.658,0.257-1.046c0-0.59-0.191-1.084-0.576-1.479
				C210.221,67.344,209.747,67.145,209.186,67.145z"/>
			<path fill="#FFFFFF" d="M213.475,66.643h0.648v0.881c0.227-0.324,0.458-0.563,0.695-0.713c0.328-0.199,0.675-0.3,1.037-0.3
				c0.244,0,0.477,0.048,0.695,0.146c0.221,0.097,0.4,0.226,0.539,0.387c0.139,0.16,0.26,0.392,0.362,0.69
				c0.216-0.399,0.485-0.703,0.81-0.911c0.325-0.208,0.674-0.313,1.047-0.313c0.349,0,0.656,0.089,0.922,0.267
				c0.269,0.18,0.465,0.429,0.597,0.746c0.129,0.318,0.192,0.797,0.192,1.437v2.785h-0.662V68.96c0-0.548-0.039-0.924-0.115-1.129
				c-0.077-0.204-0.209-0.369-0.396-0.494c-0.187-0.125-0.408-0.188-0.668-0.188c-0.314,0-0.602,0.095-0.861,0.281
				c-0.26,0.188-0.45,0.438-0.571,0.75c-0.119,0.313-0.181,0.836-0.181,1.566v1.998h-0.648v-2.612c0-0.616-0.038-1.034-0.114-1.255
				c-0.075-0.22-0.206-0.396-0.396-0.529c-0.188-0.133-0.412-0.199-0.672-0.199c-0.301,0-0.582,0.093-0.842,0.273
				c-0.263,0.184-0.455,0.43-0.58,0.739s-0.188,0.782-0.188,1.421v2.162h-0.649V66.643L213.475,66.643z"/>
			<path fill="#FFFFFF" d="M222.854,64.541c0.146,0,0.272,0.053,0.377,0.16c0.104,0.105,0.158,0.234,0.158,0.384
				c0,0.147-0.054,0.272-0.158,0.38c-0.104,0.107-0.23,0.159-0.377,0.159s-0.271-0.054-0.375-0.159s-0.156-0.232-0.156-0.38
				c0-0.149,0.052-0.278,0.156-0.384C222.583,64.594,222.707,64.541,222.854,64.541z M222.529,66.643h0.648v5.103h-0.648V66.643z"/>
			<path fill="#FFFFFF" d="M224.669,64.672h0.649v7.072h-0.649V64.672z"/>
			<path fill="#FFFFFF" d="M226.363,66.643h0.687l1.734,3.928l1.684-3.928h0.691l-3.011,6.967h-0.687l0.972-2.252L226.363,66.643z"
				/>
		</g>
	</g>
</g>
<g id="Layer_2">
	<g>
		<path fill="#FFFFFF" d="M106.442,15.96l-5.007,4.712c-3.407-3.554-7.24-5.331-11.5-5.331c-3.594,0-6.621,1.213-9.082,3.638
			c-2.462,2.425-3.692,5.417-3.692,8.97c0,2.477,0.545,4.676,1.635,6.596c1.09,1.92,2.631,3.428,4.625,4.522
			c1.993,1.095,4.208,1.643,6.642,1.643c2.08,0,3.978-0.382,5.699-1.149c1.72-0.767,3.61-2.16,5.673-4.182l4.854,4.999
			c-2.779,2.678-5.404,4.534-7.876,5.57c-2.472,1.034-5.294,1.552-8.465,1.552c-5.849,0-10.635-1.83-14.36-5.49
			C71.862,38.35,70,33.66,70,27.938c0-3.703,0.847-6.994,2.543-9.871c1.697-2.877,4.126-5.191,7.29-6.942
			C82.995,9.375,86.4,8.5,90.049,8.5c3.103,0,6.09,0.646,8.964,1.941C101.886,11.733,104.362,13.574,106.442,15.96z"/>
		<path fill="#FFFFFF" d="M112,10h7v37h-7V10z"/>
		<path fill="#FFFFFF" d="M126,10h6.839l16.03,24.348V10H156v37h-6.86l-16.009-24.272V47H126V10z"/>
	</g>
	<g>
		<path fill="#FFFFFF" d="M188.411,18.647H192v22.467c0,3.956-0.342,6.85-1.025,8.681c-0.939,2.592-2.572,4.588-4.896,5.986
			c-2.324,1.4-5.118,2.1-8.383,2.1c-2.393,0-4.541-0.343-6.447-1.027c-1.905-0.684-3.456-1.603-4.652-2.754
			c-1.196-1.153-2.299-2.838-3.307-5.056h3.896c1.061,1.866,2.43,3.247,4.106,4.146c1.677,0.897,3.756,1.347,6.237,1.347
			c2.445,0,4.512-0.46,6.197-1.381c1.686-0.922,2.889-2.08,3.607-3.474c0.718-1.396,1.077-3.646,1.077-6.755v-1.451
			c-1.352,1.729-3.003,3.055-4.952,3.979c-1.951,0.924-4.021,1.387-6.21,1.387c-2.566,0-4.979-0.645-7.237-1.932
			c-2.258-1.286-4.002-3.019-5.234-5.195c-1.231-2.177-1.848-4.569-1.848-7.178c0-2.609,0.642-5.041,1.926-7.295
			c1.282-2.255,3.057-4.038,5.324-5.352c2.266-1.313,4.657-1.969,7.172-1.969c2.086,0,4.033,0.437,5.838,1.309
			c1.805,0.873,3.545,2.311,5.222,4.315V18.647z M177.824,21.42c-2.034,0-3.922,0.497-5.666,1.49
			c-1.742,0.994-3.11,2.367-4.102,4.121c-0.99,1.753-1.486,3.649-1.486,5.688c0,3.092,1.025,5.648,3.076,7.67
			s4.708,3.032,7.973,3.032c3.298,0,5.951-1.002,7.959-3.007c2.008-2.004,3.013-4.639,3.013-7.903c0-2.125-0.462-4.021-1.385-5.688
			c-0.923-1.667-2.229-2.984-3.922-3.952C181.592,21.904,179.772,21.42,177.824,21.42z"/>
		<path fill="#FFFFFF" d="M197,18.647h3.666v4.12c1.093-1.624,2.246-2.837,3.46-3.641s2.478-1.205,3.794-1.205
			c0.991,0,2.051,0.32,3.179,0.959l-1.871,3.058c-0.753-0.328-1.384-0.492-1.897-0.492c-1.195,0-2.35,0.497-3.46,1.49
			c-1.111,0.994-1.958,2.536-2.538,4.626c-0.445,1.606-0.666,4.854-0.666,9.743v9.537H197V18.647z"/>
		<path fill="#FFFFFF" d="M226.617,17.921c4.297,0,7.857,1.572,10.683,4.716c2.567,2.868,3.853,6.263,3.853,10.185
			c0,3.938-1.357,7.381-4.07,10.326c-2.715,2.945-6.203,4.418-10.465,4.418c-4.28,0-7.777-1.473-10.49-4.418
			c-2.714-2.945-4.07-6.388-4.07-10.326c0-3.904,1.283-7.291,3.852-10.159C218.732,19.502,222.303,17.921,226.617,17.921z
			 M226.604,21.472c-2.983,0-5.548,1.114-7.691,3.343s-3.215,4.924-3.215,8.085c0,2.039,0.488,3.938,1.466,5.701
			s2.298,3.122,3.962,4.081c1.663,0.959,3.49,1.438,5.479,1.438c1.99,0,3.816-0.479,5.48-1.438c1.663-0.959,2.983-2.318,3.961-4.081
			s1.467-3.662,1.467-5.701c0-3.161-1.076-5.856-3.229-8.085S229.57,21.472,226.604,21.472z"/>
		<path fill="#FFFFFF" d="M246,18.647h3.589v13.164c0,3.214,0.171,5.426,0.514,6.635c0.513,1.728,1.493,3.093,2.939,4.094
			c1.446,1.002,3.171,1.504,5.173,1.504s3.701-0.488,5.096-1.465c1.395-0.976,2.357-2.258,2.889-3.848
			c0.359-1.088,0.539-3.395,0.539-6.92V18.647h3.666v13.837c0,3.888-0.449,6.816-1.346,8.785c-0.897,1.97-2.248,3.512-4.051,4.626
			s-4.063,1.671-6.78,1.671c-2.717,0-4.985-0.557-6.806-1.671s-3.179-2.669-4.076-4.665c-0.896-1.995-1.346-4.996-1.346-9.004
			V18.647z"/>
		<path fill="#FFFFFF" d="M277,18.647h3.589v5.183c1.417-1.969,3.048-3.446,4.892-4.431s3.9-1.477,6.172-1.477
			c3.959,0,7.348,1.443,10.166,4.328c2.816,2.885,4.225,6.358,4.225,10.417c0,4.146-1.395,7.667-4.188,10.561
			c-2.791,2.894-6.158,4.34-10.102,4.34c-2.219,0-4.26-0.466-6.12-1.398c-1.86-0.934-3.543-2.324-5.045-4.172v15.159H277V18.647z
			 M291.355,21.42c-3.104,0-5.717,1.096-7.839,3.287c-2.123,2.192-3.185,4.918-3.185,8.18c0,2.14,0.474,4.064,1.42,5.772
			s2.302,3.063,4.066,4.063s3.627,1.502,5.588,1.502c1.928,0,3.738-0.505,5.436-1.516c1.695-1.009,3.047-2.42,4.053-4.231
			s1.51-3.71,1.51-5.694c0-2.002-0.5-3.9-1.498-5.694c-0.996-1.794-2.34-3.188-4.027-4.181S293.35,21.42,291.355,21.42z"/>
	</g>
	<path display="none" fill="#1A1F2E" d="M15.881,41.557c-0.078-0.067-0.155-0.137-0.235-0.201c-0.027,0.008-0.053,0.012-0.08,0.023
		c-0.066,0.211-0.146,0.426-0.246,0.645c-0.102,0.228-0.213,0.451-0.327,0.674c0.055,0.348-0.049,0.722-0.319,0.945
		c-0.008,0.727-0.2,1.444-0.415,2.155c0.022,0.163,0.007,0.327-0.041,0.483c0.085,0.192,0.114,0.415,0.083,0.629
		c0.21,1.063,0.504,2.106,0.617,3.188c0.307,0.137,0.48,0.431,0.534,0.743c0.555,0.218,0.726,0.944,0.462,1.438
		c0.386,0.459,0.804,0.893,1.252,1.307c1.84,1.176,4.225,2.667,5.817,2.379C25.454,55.311,26.592,50.584,15.881,41.557"/>
	<linearGradient id="SVGID_1_" gradientUnits="userSpaceOnUse" x1="2.5796" y1="40.4102" x2="22.9999" y2="33.7752">
		<stop  offset="0" style="stop-color:#637782"/>
		<stop  offset="0.5" style="stop-color:#8698A4"/>
		<stop  offset="1" style="stop-color:#97A9B3"/>
	</linearGradient>
	<path display="none" fill="url(#SVGID_1_)" d="M14.377,53.039c2.299,1.306,4.698,2.239,7.137,2.839h0.002
		c0.3,0.046,0.587,0.07,0.868,0.085c-3.644-0.326-10.962-6.553-5.442-15.853c6.379-10.754,6.872-17.647,1.645-21.5
		c-2.16-1.594-4.759-2.408-7.319-2.408c-5.547,0-10.912,3.825-11.247,11.848C-0.395,38.023,5.148,47.797,14.377,53.039z"/>
	<path display="none" fill="#1A1F2E" d="M16.889,6.38c-0.274-0.044-0.545-0.093-0.818-0.142c-1.585-0.18-3.195,0.157-4.791,0.295
		c-1.826,0.983-3.922,2.219-4.422,3.618c-0.673,2.489,2.81,5.85,15.906,0.99c0.042-0.016,0.083-0.031,0.126-0.046
		C21.862,8.779,19.25,6.938,16.889,6.38"/>
	<linearGradient id="SVGID_2_" gradientUnits="userSpaceOnUse" x1="22.8784" y1="-0.2461" x2="34.2477" y2="25.2898">
		<stop  offset="0" style="stop-color:#637782"/>
		<stop  offset="0.5" style="stop-color:#8698A4"/>
		<stop  offset="1" style="stop-color:#97A9B3"/>
	</linearGradient>
	<path display="none" fill="url(#SVGID_2_)" d="M23.47,12.795c6.029,10.956,11.688,14.837,17.607,12.188
		c7.744-3.462,10.996-14.672,1.188-20.967C38.104,1.347,33.241,0,28.281,0C23.306,0,18.232,1.354,13.67,4.086
		c-2.268,1.357-4.268,2.99-6,4.824L7.666,8.913c-0.187,0.24-0.354,0.477-0.501,0.718C9.263,6.606,18.256,3.315,23.47,12.795z"/>
	<path display="none" fill="#1A1F2E" d="M46.392,32.844c0.488-0.09,0.969-0.193,1.437-0.321c0.515-0.165,1.001-0.378,1.437-0.641
		c0.636-0.386,1.282-0.808,1.977-1.071c0.189-0.156,0.375-0.32,0.553-0.5c1.246-1.252,2.493-2.66,3.244-4.265
		c0.08-2.257,0.336-5.667-0.837-7.073c-1.795-1.832-6.418-0.466-8.8,13.421c-0.031,0.181-0.065,0.356-0.104,0.536
		C45.662,32.923,46.025,32.895,46.392,32.844"/>
	<linearGradient id="SVGID_3_" gradientUnits="userSpaceOnUse" x1="47.8384" y1="49.2363" x2="37.2194" y2="28.3955">
		<stop  offset="0" style="stop-color:#637782"/>
		<stop  offset="0.5" style="stop-color:#8698A4"/>
		<stop  offset="1" style="stop-color:#97A9B3"/>
	</linearGradient>
	<path display="none" fill="url(#SVGID_3_)" d="M54.499,19.501c1.541,3.352-0.133,12.866-10.867,12.687
		c-12.408-0.202-18.56,2.81-19.253,9.311c-0.902,8.508,7.082,16.959,17.38,11.525c8.75-4.623,14.359-14.355,14.239-25.057
		c-0.031-2.662-0.431-5.229-1.137-7.663C54.75,20.019,54.628,19.753,54.499,19.501z"/>
</g>
<g id="Layer_3">
	<g>
		<linearGradient id="SVGID_4_" gradientUnits="userSpaceOnUse" x1="9.5347" y1="53.9814" x2="15.4379" y2="16.7097">
			<stop  offset="0" style="stop-color:#FFFFFF;stop-opacity:0.5"/>
			<stop  offset="1" style="stop-color:#FFFFFF"/>
		</linearGradient>
		<path fill="url(#SVGID_4_)" d="M22.958,55.969c-0.182,0.014-0.375,0.009-0.571-0.008C22.577,55.966,22.776,55.982,22.958,55.969z
			 M0.022,28.051C-0.393,38.024,5.148,47.796,14.38,53.04c2.297,1.306,4.697,2.239,7.136,2.839c0,0,0,0,0.002,0
			c0.299,0.045,0.588,0.069,0.868,0.082c-3.645-0.324-10.96-6.55-5.443-15.852c6.38-10.756,6.874-17.646,1.646-21.501
			C11.75,13.565,0.515,16.325,0.022,28.051z"/>
		<g>
			<path opacity="0.3" fill="#FFFFFF" d="M22.946,55.969c-0.179,0.014-0.367,0.009-0.56-0.008c-0.177-0.008-0.359-0.022-0.544-0.043
				C22.237,55.999,22.61,56.025,22.946,55.969z"/>
			<path opacity="0.3" fill="#FFFFFF" d="M16.092,41.737c-3.804,8.396,2.866,13.92,6.294,14.224
				c0.188,0.005,0.382,0.021,0.562,0.008c0.012-0.002,0.025-0.002,0.038-0.003C25.437,55.314,26.573,50.646,16.092,41.737z"/>
		</g>
	</g>
	<g>
		<linearGradient id="SVGID_5_" gradientUnits="userSpaceOnUse" x1="6.8696" y1="12.8926" x2="48.3574" y2="12.8926">
			<stop  offset="0" style="stop-color:#FFFFFF;stop-opacity:0.5"/>
			<stop  offset="1" style="stop-color:#FFFFFF"/>
		</linearGradient>
		<path fill="url(#SVGID_5_)" d="M6.87,10.125c0.082-0.166,0.181-0.332,0.295-0.494C7.064,9.796,6.951,9.96,6.87,10.125z
			 M42.266,4.017c-8.338-5.349-19.482-5.386-28.595,0.069C11.405,5.443,9.406,7.077,7.67,8.911L7.669,8.913
			C7.48,9.151,7.315,9.39,7.165,9.631c2.101-3.026,11.094-6.317,16.306,3.163c6.029,10.96,11.688,14.837,17.607,12.19
			C48.821,21.521,52.075,10.31,42.266,4.017z"/>
		<g>
			<path opacity="0.3" fill="#FFFFFF" d="M6.882,10.103c0.079-0.159,0.174-0.317,0.283-0.472c0.1-0.161,0.21-0.32,0.325-0.479
				C7.217,9.46,7.007,9.776,6.882,10.103z"/>
			<path opacity="0.3" fill="#FFFFFF" d="M7.165,9.631C7.067,9.79,6.961,9.948,6.88,10.106c-0.006,0.016-0.014,0.031-0.021,0.047
				c-0.667,2.47,2.766,5.799,15.643,1.083C17.211,3.708,9.141,6.785,7.165,9.631z"/>
		</g>
	</g>
	<g>
		<linearGradient id="SVGID_6_" gradientUnits="userSpaceOnUse" x1="56.0005" y1="36.8706" x2="24.3115" y2="36.8706">
			<stop  offset="0" style="stop-color:#FFFFFF;stop-opacity:0.5"/>
			<stop  offset="1" style="stop-color:#FFFFFF"/>
		</linearGradient>
		<path fill="url(#SVGID_6_)" d="M54.221,18.999c0.102,0.152,0.191,0.322,0.278,0.504C54.41,19.332,54.323,19.15,54.221,18.999z
			 M41.757,53.024c8.753-4.623,14.36-14.356,14.241-25.058c-0.032-2.661-0.433-5.229-1.136-7.662c-0.003-0.002-0.003,0-0.003,0
			c-0.111-0.286-0.23-0.553-0.36-0.802c1.541,3.35-0.134,12.865-10.868,12.687c-12.408-0.204-18.558,2.807-19.25,9.312
			C23.478,50.007,31.46,58.459,41.757,53.024z"/>
		<g>
			<path opacity="0.3" fill="#FFFFFF" d="M54.225,19.006c0.101,0.15,0.189,0.318,0.274,0.497c0.085,0.164,0.164,0.337,0.241,0.516
				C54.612,19.624,54.445,19.278,54.225,19.006z"/>
			<path opacity="0.3" fill="#FFFFFF" d="M54.5,19.502c-0.09-0.169-0.175-0.348-0.274-0.498c-0.009-0.009-0.015-0.022-0.023-0.031
				c-1.785-1.82-6.354-0.479-8.748,13.146C54.551,31.252,55.949,22.653,54.5,19.502z"/>
		</g>
	</g>
</g>
</svg>
