<?xml version="1.0" encoding="utf-8"?>
<!-- Generator: Adobe Illustrator 15.0.0, SVG Export Plug-In . SVG Version: 6.00 Build 0)  -->
<!DOCTYPE svg PUBLIC "-//W3C//DTD SVG 1.1//EN" "http://www.w3.org/Graphics/SVG/1.1/DTD/svg11.dtd">
<svg version="1.1" xmlns="http://www.w3.org/2000/svg" xmlns:xlink="http://www.w3.org/1999/xlink" x="0px" y="0px" width="232px"
	 height="74px" viewBox="0 0 232 74" enable-background="new 0 0 232 74" xml:space="preserve">
<g id="Layer_1">
	<path fill="#0093D0" d="M208,26h6v3h0.545c1.708-2,4.647-3.858,7.49-3.858c7.164,0,8.965,4.278,8.965,10.367V51h-7V36.748
		c0-4.045-0.917-6.043-4.048-6.043c-3.652,0-4.952,2.046-4.952,7.041V51h-7V26z"/>
	<path fill="#0093D0" d="M191.228,25.374c7.755,0,12.751,5.14,12.751,12.99c0,7.804-4.996,12.941-12.751,12.941
		c-7.708,0-12.703-5.138-12.703-12.941C178.524,30.514,183.52,25.374,191.228,25.374 M191.228,46.215
		c4.615,0,5.994-3.948,5.994-7.851c0-3.95-1.379-7.897-5.994-7.897c-4.568,0-5.946,3.947-5.946,7.897
		C185.281,42.267,186.659,46.215,191.228,46.215"/>
	<polygon fill="#0093D0" points="154,44.875 166.459,30 155,30 155,25 175,25 175,30.226 162.662,45 176,45 176,50 154,50 	"/>
	<path fill="#0093D0" d="M122,25h6v5h0.52c1.234-3,4.645-5.227,7.928-5.227c0.475,0,0.553,0.106,1.553,0.249v6.282
		c-1-0.146-1.573-0.239-2.382-0.239c-4.949,0-6.618,3.565-6.618,7.898V50h-7V25z"/>
	<path fill="#0093D0" d="M105.966,25.374c7.756,0,12.751,5.14,12.751,12.99c0,7.804-4.995,12.941-12.751,12.941
		c-7.709,0-12.704-5.138-12.704-12.941C93.262,30.514,98.257,25.374,105.966,25.374 M105.966,46.215
		c4.615,0,5.996-3.948,5.996-7.851c0-3.95-1.381-7.897-5.996-7.897c-4.568,0-5.948,3.947-5.948,7.897
		C100.018,42.267,101.398,46.215,105.966,46.215"/>
	<polygon fill="#0093D0" points="60,17 68,17 68,30 81,30 81,17 89,17 89,51 81,51 81,36 68,36 68,51 60,51 	"/>
	<path fill="#8DC63F" d="M35.512,26H38.7l8.094,20.946L54.363,26h3L46.698,54.398c-1.713,4.141-2.682,5.366-6.443,5.366
		c-1.19-0.049-2.255-0.013-2.255-0.2V57.04c1,0.144,1.351,0.239,2.017,0.239c2.667,0,3.269-1.571,4.271-3.855l1.039-2.881L35.512,26
		z"/>
	<path fill="#8DC63F" d="M0,26h3v4H2.948c1.594-3,4.204-4.713,8.167-4.713c3.284,0,6.23,1.642,7.149,4.88
		c1.497-3.238,4.413-4.774,7.699-4.774c5.458,0,8.037,2.844,8.037,8.653V51h-3V34.189c0-4.047-1.218-6.235-5.564-6.235
		c-5.268,0-6.436,4.282-6.436,8.854V51h-3V34.046c0-3.332-1.524-6.092-5.387-6.092C5.345,27.954,3,31.856,3,36.997V51H0V26z"/>
	<g>
		<polygon fill="#0093D0" points="145.817,0 146.18,9.042 149.465,4.122 146.807,9.401 154.388,5.528 147.166,10.028 
			157.969,10.391 147.166,10.75 153.62,14.93 146.807,11.375 149.783,17.104 146.18,11.737 145.817,15.971 145.456,11.737 
			141.918,17.168 144.83,11.375 138.591,14.546 144.471,10.75 132.644,10.261 144.471,10.028 136.16,4.634 144.83,9.401 
			142.109,3.93 145.456,9.042 		"/>
		<path fill="#0093D0" d="M143.454,21.542l-0.669,7.755c0.389-1.235,1.45-3.676,4.271-5.586c0,0,0.814-0.635,1.342-1.265
			l-0.012-0.904c1.172,0,1.614-0.573,1.614-0.573v-0.733c0-0.274-1.838-0.683-1.838-0.683l0.106-1.937
			c0.518-0.188,0.731-0.515,0.731-0.515v-0.654c0-0.245-2-0.492-2-0.492v-3.08c0-0.952-1.027-1.278-1.027-1.278l-0.248-2.986
			l-0.417,2.986c0,0-1.308,0.326-1.308,1.278v3.08c0,0-1,0.247-1,0.492v0.654c0,0,0.081,0.326,0.601,0.515l0.058,1.937
			c0,0-1.658,0.408-1.658,0.683v0.733C142,20.969,142.284,21.542,143.454,21.542 M147.463,35.944c0,0,1.142-0.879,1.863-1.74
			l-0.602-7.542c-0.242,0.252-0.674,0.693-0.934,0.899c-0.334,0.262-4.373,3.252-5.438,6.558l-0.755,9.468
			C142.121,41.912,143.596,38.56,147.463,35.944 M168.262,55.51l-1.488-0.563l-1.561-0.749l-1.207-0.573l-1.818-0.36l-1.658,0.398
			l-0.809-0.406l-1.007,0.753l-0.653-0.704l-1.462-0.558l-1.56,1.361l-0.707,0.051l-1.107-0.101l-1.711-0.202l-0.006,0.003
			l-0.087-1.557l-0.652-0.026l-0.983-12.32c-0.326,0.343-0.924,0.954-1.285,1.238c-0.457,0.359-5.984,4.449-7.426,8.969l-0.17,2.113
			l-0.654,0.026l-0.076,1.362l-2.408,0.343l-1.463-0.455l-1.059,0.304l-0.803-0.304l-0.958,0.252l-1.712-0.401l-1.662,1.106
			l-1.058,0.069L128.799,55h-1.007l-0.401,0.588l-1.113-0.203l-0.307,0.12l-2.188-0.024L105.913,58h80.131L168.262,55.51z"/>
	</g>
	<g>
		<path fill="#414042" d="M132.352,65.521v-0.676h3.74v0.676h-1.521v6.223h-0.697v-6.223H132.352z"/>
		<path fill="#414042" d="M137.205,64.672h0.649v2.885c0.263-0.351,0.552-0.612,0.868-0.785c0.314-0.174,0.656-0.261,1.024-0.261
			c0.378,0,0.712,0.097,1.005,0.29c0.291,0.194,0.508,0.455,0.646,0.781s0.209,0.838,0.209,1.535v2.627h-0.65v-2.434
			c0-0.588-0.022-0.98-0.068-1.178c-0.081-0.338-0.227-0.592-0.439-0.762c-0.211-0.17-0.488-0.256-0.832-0.256
			c-0.393,0-0.744,0.131-1.055,0.395c-0.312,0.262-0.516,0.588-0.615,0.975c-0.063,0.25-0.093,0.713-0.093,1.389v1.871h-0.649
			V64.672z"/>
		<path fill="#414042" d="M147.485,70.051l0.548,0.291c-0.18,0.355-0.387,0.645-0.623,0.863c-0.234,0.219-0.5,0.385-0.793,0.498
			c-0.295,0.115-0.627,0.172-0.999,0.172c-0.823,0-1.467-0.273-1.931-0.818c-0.465-0.545-0.697-1.162-0.697-1.85
			c0-0.647,0.197-1.225,0.59-1.73c0.498-0.645,1.166-0.966,2.001-0.966c0.86,0,1.548,0.329,2.062,0.989
			c0.365,0.466,0.551,1.047,0.557,1.744h-4.541c0.013,0.593,0.199,1.078,0.563,1.457c0.361,0.379,0.81,0.568,1.342,0.568
			c0.257,0,0.507-0.045,0.75-0.135s0.449-0.211,0.62-0.359C147.104,70.625,147.287,70.385,147.485,70.051z M147.485,68.677
			c-0.087-0.351-0.213-0.63-0.378-0.839c-0.166-0.21-0.385-0.379-0.658-0.507c-0.271-0.128-0.559-0.192-0.859-0.192
			c-0.494,0-0.92,0.161-1.277,0.483c-0.26,0.234-0.456,0.586-0.59,1.055H147.485z"/>
		<path fill="#414042" d="M158.977,66.126l-0.537,0.417c-0.297-0.391-0.654-0.687-1.069-0.889c-0.416-0.201-0.873-0.303-1.37-0.303
			c-0.545,0-1.049,0.133-1.514,0.396c-0.463,0.265-0.822,0.619-1.078,1.064c-0.255,0.445-0.383,0.947-0.383,1.504
			c0,0.84,0.285,1.542,0.856,2.105c0.57,0.563,1.29,0.844,2.159,0.844c0.955,0,1.755-0.379,2.398-1.135l0.537,0.412
			c-0.34,0.438-0.764,0.776-1.272,1.016c-0.509,0.238-1.077,0.358-1.704,0.358c-1.194,0-2.137-0.401-2.826-1.205
			c-0.578-0.679-0.867-1.497-0.867-2.457c0-1.01,0.351-1.859,1.051-2.548c0.701-0.689,1.578-1.035,2.633-1.035
			c0.637,0,1.212,0.128,1.725,0.383C158.229,65.31,158.649,65.666,158.977,66.126z"/>
		<path fill="#414042" d="M160.486,64.846h0.682v6.898h-0.682V64.846z"/>
		<path fill="#414042" d="M162.973,71.744v-6.898h0.148l4.541,5.287v-5.287h0.674v6.898h-0.154l-4.504-5.224v5.224H162.973z"/>
		<path fill="#414042" d="M174.479,66.642h0.649v4.065c0,0.717-0.063,1.24-0.186,1.571c-0.17,0.469-0.465,0.83-0.886,1.083
			c-0.422,0.254-0.927,0.38-1.518,0.38c-0.434,0-0.822-0.062-1.166-0.186c-0.346-0.124-0.626-0.29-0.842-0.499
			c-0.217-0.208-0.416-0.514-0.6-0.914h0.705c0.192,0.338,0.439,0.588,0.744,0.75c0.303,0.162,0.68,0.244,1.128,0.244
			c0.442,0,0.817-0.084,1.122-0.25c0.305-0.167,0.522-0.377,0.653-0.629c0.129-0.252,0.194-0.66,0.194-1.223v-0.262
			c-0.245,0.313-0.545,0.553-0.896,0.719c-0.354,0.168-0.728,0.252-1.124,0.252c-0.464,0-0.901-0.117-1.31-0.35
			s-0.725-0.547-0.947-0.94s-0.334-0.827-0.334-1.299s0.116-0.912,0.348-1.319c0.232-0.408,0.554-0.731,0.964-0.969
			c0.41-0.238,0.843-0.356,1.298-0.356c0.378,0,0.73,0.079,1.057,0.237c0.326,0.157,0.642,0.418,0.945,0.779V66.642z
			 M172.563,67.144c-0.368,0-0.71,0.09-1.025,0.27s-0.563,0.429-0.742,0.745c-0.18,0.318-0.27,0.661-0.27,1.029
			c0,0.561,0.186,1.023,0.557,1.389s0.853,0.549,1.443,0.549c0.597,0,1.076-0.182,1.439-0.545c0.364-0.361,0.546-0.839,0.546-1.43
			c0-0.385-0.083-0.728-0.25-1.029c-0.167-0.301-0.405-0.54-0.71-0.715C173.244,67.23,172.914,67.144,172.563,67.144z"/>
		<path fill="#414042" d="M176.511,66.642h0.664v0.745c0.197-0.293,0.406-0.513,0.626-0.658s0.448-0.218,0.687-0.218
			c0.18,0,0.371,0.058,0.575,0.173l-0.339,0.554c-0.137-0.06-0.25-0.089-0.344-0.089c-0.216,0-0.425,0.09-0.626,0.27
			c-0.2,0.18-0.354,0.459-0.459,0.837c-0.081,0.29-0.12,0.878-0.12,1.763v1.727h-0.664V66.642z"/>
		<path fill="#414042" d="M182.241,66.511c0.777,0,1.422,0.284,1.933,0.853c0.465,0.52,0.697,1.134,0.697,1.844
			c0,0.713-0.245,1.336-0.736,1.869c-0.491,0.532-1.122,0.799-1.894,0.799c-0.775,0-1.408-0.267-1.898-0.799
			c-0.491-0.533-0.736-1.156-0.736-1.869c0-0.707,0.232-1.319,0.697-1.838C180.814,66.797,181.46,66.511,182.241,66.511z
			 M182.239,67.152c-0.541,0-1.004,0.202-1.393,0.605c-0.388,0.403-0.582,0.891-0.582,1.463c0,0.369,0.089,0.713,0.266,1.031
			c0.177,0.319,0.416,0.565,0.717,0.739c0.301,0.173,0.631,0.261,0.992,0.261c0.359,0,0.689-0.088,0.99-0.261
			c0.302-0.174,0.541-0.42,0.718-0.739c0.177-0.318,0.265-0.662,0.265-1.031c0-0.572-0.194-1.06-0.584-1.463
			C183.239,67.354,182.775,67.152,182.239,67.152z"/>
		<path fill="#414042" d="M186.226,66.642h0.65v2.382c0,0.582,0.03,0.982,0.092,1.201c0.094,0.313,0.271,0.56,0.533,0.74
			c0.262,0.182,0.573,0.272,0.936,0.272s0.67-0.089,0.922-0.265c0.252-0.177,0.427-0.409,0.523-0.697
			c0.064-0.196,0.097-0.613,0.097-1.252v-2.382h0.663v2.505c0,0.703-0.08,1.232-0.243,1.589c-0.162,0.356-0.407,0.636-0.733,0.837
			s-0.734,0.303-1.227,0.303c-0.491,0-0.902-0.102-1.231-0.303s-0.575-0.482-0.737-0.844s-0.244-0.904-0.244-1.629V66.642z"/>
		<path fill="#414042" d="M192.331,66.642h0.65v0.938c0.256-0.357,0.551-0.624,0.885-0.803c0.334-0.178,0.705-0.267,1.117-0.267
			c0.717,0,1.33,0.261,1.839,0.782c0.51,0.523,0.765,1.15,0.765,1.886c0,0.75-0.252,1.388-0.758,1.911
			c-0.505,0.523-1.114,0.785-1.828,0.785c-0.401,0-0.771-0.084-1.107-0.254c-0.336-0.168-0.641-0.42-0.912-0.754v2.742h-0.65V66.642
			z M194.929,67.144c-0.561,0-1.033,0.198-1.418,0.595s-0.576,0.891-0.576,1.48c0,0.387,0.086,0.735,0.257,1.045
			c0.171,0.309,0.417,0.554,0.735,0.734c0.32,0.182,0.656,0.271,1.012,0.271c0.349,0,0.676-0.091,0.983-0.273
			s0.552-0.438,0.733-0.766s0.273-0.672,0.273-1.031c0-0.361-0.09-0.705-0.271-1.029c-0.18-0.325-0.423-0.578-0.729-0.757
			C195.624,67.233,195.29,67.144,194.929,67.144z"/>
		<path fill="#414042" d="M202.015,64.846h3.418v0.676h-2.736v2.161h2.736v0.675h-2.736v3.387h-0.682V64.846z"/>
		<path fill="#414042" d="M211.78,66.642v5.103h-0.641v-0.877c-0.271,0.334-0.578,0.586-0.916,0.754
			c-0.339,0.17-0.709,0.254-1.111,0.254c-0.714,0-1.324-0.262-1.83-0.785s-0.758-1.161-0.758-1.911c0-0.735,0.255-1.362,0.766-1.886
			c0.51-0.521,1.123-0.782,1.841-0.782c0.415,0,0.79,0.089,1.125,0.267c0.335,0.179,0.63,0.445,0.884,0.803v-0.938H211.78z
			 M209.185,67.144c-0.361,0-0.695,0.09-1.001,0.27c-0.306,0.179-0.549,0.432-0.729,0.757c-0.182,0.324-0.271,0.668-0.271,1.029
			c0,0.359,0.092,0.703,0.273,1.031s0.428,0.583,0.734,0.766c0.308,0.183,0.637,0.273,0.989,0.273c0.355,0,0.692-0.09,1.011-0.271
			c0.317-0.181,0.563-0.426,0.734-0.734c0.171-0.31,0.257-0.658,0.257-1.045c0-0.59-0.192-1.084-0.577-1.48
			S209.747,67.144,209.185,67.144z"/>
		<path fill="#414042" d="M213.474,66.642h0.649v0.882c0.226-0.325,0.458-0.563,0.696-0.713c0.328-0.199,0.674-0.3,1.036-0.3
			c0.245,0,0.477,0.048,0.696,0.146c0.221,0.097,0.4,0.226,0.539,0.387c0.139,0.16,0.26,0.391,0.362,0.691
			c0.216-0.4,0.485-0.704,0.81-0.912s0.673-0.312,1.046-0.312c0.349,0,0.657,0.089,0.923,0.267c0.268,0.179,0.465,0.428,0.596,0.746
			c0.129,0.318,0.193,0.797,0.193,1.436v2.785h-0.663v-2.785c0-0.548-0.038-0.924-0.115-1.129c-0.077-0.204-0.209-0.369-0.396-0.494
			s-0.409-0.188-0.668-0.188c-0.314,0-0.602,0.094-0.862,0.281s-0.45,0.438-0.571,0.75c-0.119,0.313-0.18,0.835-0.18,1.566v1.998
			h-0.649v-2.612c0-0.616-0.038-1.034-0.114-1.255c-0.076-0.22-0.207-0.396-0.396-0.529c-0.188-0.133-0.412-0.199-0.672-0.199
			c-0.301,0-0.581,0.092-0.842,0.273c-0.262,0.184-0.455,0.43-0.58,0.739s-0.188,0.783-0.188,1.421v2.162h-0.649V66.642z"/>
		<path fill="#414042" d="M222.853,64.541c0.146,0,0.273,0.053,0.378,0.16c0.104,0.105,0.157,0.234,0.157,0.384
			c0,0.147-0.053,0.273-0.157,0.38s-0.231,0.159-0.378,0.159c-0.146,0-0.27-0.053-0.375-0.159c-0.104-0.106-0.156-0.232-0.156-0.38
			c0-0.149,0.052-0.278,0.156-0.384C222.583,64.594,222.707,64.541,222.853,64.541z M222.529,66.642h0.649v5.103h-0.649V66.642z"/>
		<path fill="#414042" d="M224.669,64.672h0.649v7.072h-0.649V64.672z"/>
		<path fill="#414042" d="M226.363,66.642h0.687l1.734,3.929l1.684-3.929h0.691l-3.01,6.968h-0.687l0.972-2.252L226.363,66.642z"/>
	</g>
</g>
<g id="Layer_1_copy" display="none">
	<path display="inline" fill="#FFFFFF" d="M208,26h6v3h0.545c1.708-2,4.647-3.858,7.49-3.858c7.164,0,8.965,4.278,8.965,10.367V51
		h-7V36.748c0-4.045-0.917-6.043-4.048-6.043c-3.652,0-4.952,2.046-4.952,7.041V51h-7V26z"/>
	<path display="inline" fill="#FFFFFF" d="M191.228,25.374c7.755,0,12.751,5.14,12.751,12.99c0,7.804-4.996,12.941-12.751,12.941
		c-7.708,0-12.703-5.138-12.703-12.941C178.524,30.514,183.52,25.374,191.228,25.374 M191.228,46.215
		c4.615,0,5.994-3.948,5.994-7.851c0-3.95-1.379-7.897-5.994-7.897c-4.568,0-5.946,3.947-5.946,7.897
		C185.281,42.267,186.659,46.215,191.228,46.215"/>
	<polygon display="inline" fill="#FFFFFF" points="154,44.875 166.459,30 155,30 155,25 175,25 175,30.226 162.662,45 176,45 
		176,50 154,50 	"/>
	<path display="inline" fill="#FFFFFF" d="M122,25h6v5h0.52c1.234-3,4.645-5.227,7.928-5.227c0.475,0,0.553,0.106,1.553,0.249v6.282
		c-1-0.146-1.573-0.239-2.382-0.239c-4.949,0-6.618,3.565-6.618,7.898V50h-7V25z"/>
	<path display="inline" fill="#FFFFFF" d="M105.966,25.374c7.756,0,12.751,5.14,12.751,12.99c0,7.804-4.995,12.941-12.751,12.941
		c-7.709,0-12.704-5.138-12.704-12.941C93.262,30.514,98.257,25.374,105.966,25.374 M105.966,46.215
		c4.615,0,5.996-3.948,5.996-7.851c0-3.95-1.381-7.897-5.996-7.897c-4.568,0-5.948,3.947-5.948,7.897
		C100.018,42.267,101.398,46.215,105.966,46.215"/>
	<polygon display="inline" fill="#FFFFFF" points="60,17 68,17 68,30 81,30 81,17 89,17 89,51 81,51 81,36 68,36 68,51 60,51 	"/>
	<path display="inline" fill="#FFFFFF" d="M35.512,26H38.7l8.094,20.946L54.363,26h3L46.698,54.398
		c-1.713,4.141-2.682,5.366-6.443,5.366c-1.19-0.049-2.255-0.013-2.255-0.2V57.04c1,0.144,1.351,0.239,2.017,0.239
		c2.667,0,3.269-1.571,4.271-3.855l1.039-2.881L35.512,26z"/>
	<path display="inline" fill="#FFFFFF" d="M0,26h3v4H2.948c1.594-3,4.204-4.713,8.167-4.713c3.284,0,6.23,1.642,7.149,4.88
		c1.497-3.238,4.413-4.774,7.699-4.774c5.458,0,8.037,2.844,8.037,8.653V51h-3V34.189c0-4.047-1.218-6.235-5.564-6.235
		c-5.268,0-6.436,4.282-6.436,8.854V51h-3V34.046c0-3.332-1.524-6.092-5.387-6.092C5.345,27.954,3,31.856,3,36.997V51H0V26z"/>
	<g display="inline">
		<polygon fill="#FFFFFF" points="145.817,0 146.18,9.042 149.465,4.122 146.807,9.401 154.388,5.528 147.166,10.028 
			157.969,10.391 147.166,10.75 153.62,14.93 146.807,11.375 149.783,17.104 146.18,11.737 145.817,15.971 145.456,11.737 
			141.918,17.168 144.83,11.375 138.591,14.546 144.471,10.75 132.644,10.261 144.471,10.028 136.16,4.634 144.83,9.401 
			142.109,3.93 145.456,9.042 		"/>
		<path fill="#FFFFFF" d="M143.454,21.542l-0.669,7.755c0.389-1.235,1.45-3.676,4.271-5.586c0,0,0.814-0.635,1.342-1.265
			l-0.012-0.904c1.172,0,1.614-0.573,1.614-0.573v-0.733c0-0.274-1.838-0.683-1.838-0.683l0.106-1.937
			c0.518-0.188,0.731-0.515,0.731-0.515v-0.654c0-0.245-2-0.492-2-0.492v-3.08c0-0.952-1.027-1.278-1.027-1.278l-0.248-2.986
			l-0.417,2.986c0,0-1.308,0.326-1.308,1.278v3.08c0,0-1,0.247-1,0.492v0.654c0,0,0.081,0.326,0.601,0.515l0.058,1.937
			c0,0-1.658,0.408-1.658,0.683v0.733C142,20.969,142.284,21.542,143.454,21.542 M147.463,35.944c0,0,1.142-0.879,1.863-1.74
			l-0.602-7.542c-0.242,0.252-0.674,0.693-0.934,0.899c-0.334,0.262-4.373,3.252-5.438,6.558l-0.755,9.468
			C142.121,41.912,143.596,38.56,147.463,35.944 M168.262,55.51l-1.488-0.563l-1.561-0.749l-1.207-0.573l-1.818-0.36l-1.658,0.398
			l-0.809-0.406l-1.007,0.753l-0.653-0.704l-1.462-0.558l-1.56,1.361l-0.707,0.051l-1.107-0.101l-1.711-0.202l-0.006,0.003
			l-0.087-1.557l-0.652-0.026l-0.983-12.32c-0.326,0.343-0.924,0.954-1.285,1.238c-0.457,0.359-5.984,4.449-7.426,8.969l-0.17,2.113
			l-0.654,0.026l-0.076,1.362l-2.408,0.343l-1.463-0.455l-1.059,0.304l-0.803-0.304l-0.958,0.252l-1.712-0.401l-1.662,1.106
			l-1.058,0.069L128.799,55h-1.007l-0.401,0.588l-1.113-0.203l-0.307,0.12l-2.188-0.024L105.913,58h80.131L168.262,55.51z"/>
	</g>
	<g display="inline" opacity="0.8">
		<path fill="#FFFFFF" d="M132.352,65.521v-0.676h3.74v0.676h-1.521v6.223h-0.697v-6.223H132.352z"/>
		<path fill="#FFFFFF" d="M137.205,64.672h0.649v2.885c0.263-0.351,0.552-0.612,0.868-0.785c0.314-0.174,0.656-0.261,1.024-0.261
			c0.378,0,0.712,0.097,1.005,0.29c0.291,0.194,0.508,0.455,0.646,0.781s0.209,0.838,0.209,1.535v2.627h-0.65v-2.434
			c0-0.588-0.022-0.98-0.068-1.178c-0.081-0.338-0.227-0.592-0.439-0.762c-0.211-0.17-0.488-0.256-0.832-0.256
			c-0.393,0-0.744,0.131-1.055,0.395c-0.312,0.262-0.516,0.588-0.615,0.975c-0.063,0.25-0.093,0.713-0.093,1.389v1.871h-0.649
			V64.672z"/>
		<path fill="#FFFFFF" d="M147.485,70.051l0.548,0.291c-0.18,0.355-0.387,0.645-0.623,0.863c-0.234,0.219-0.5,0.385-0.793,0.498
			c-0.295,0.115-0.627,0.172-0.999,0.172c-0.823,0-1.467-0.273-1.931-0.818c-0.465-0.545-0.697-1.162-0.697-1.85
			c0-0.647,0.197-1.225,0.59-1.73c0.498-0.645,1.166-0.966,2.001-0.966c0.86,0,1.548,0.329,2.062,0.989
			c0.365,0.466,0.551,1.047,0.557,1.744h-4.541c0.013,0.593,0.199,1.078,0.563,1.457c0.361,0.379,0.81,0.568,1.342,0.568
			c0.257,0,0.507-0.045,0.75-0.135s0.449-0.211,0.62-0.359C147.104,70.625,147.287,70.385,147.485,70.051z M147.485,68.677
			c-0.087-0.351-0.213-0.63-0.378-0.839c-0.166-0.21-0.385-0.379-0.658-0.507c-0.271-0.128-0.559-0.192-0.859-0.192
			c-0.494,0-0.92,0.161-1.277,0.483c-0.26,0.234-0.456,0.586-0.59,1.055H147.485z"/>
		<path fill="#FFFFFF" d="M158.977,66.126l-0.537,0.417c-0.297-0.391-0.654-0.687-1.069-0.889c-0.416-0.201-0.873-0.303-1.37-0.303
			c-0.545,0-1.049,0.133-1.514,0.396c-0.463,0.265-0.822,0.619-1.078,1.064c-0.255,0.445-0.383,0.947-0.383,1.504
			c0,0.84,0.285,1.542,0.856,2.105c0.57,0.563,1.29,0.844,2.159,0.844c0.955,0,1.755-0.379,2.398-1.135l0.537,0.412
			c-0.34,0.438-0.764,0.776-1.272,1.016c-0.509,0.238-1.077,0.358-1.704,0.358c-1.194,0-2.137-0.401-2.826-1.205
			c-0.578-0.679-0.867-1.497-0.867-2.457c0-1.01,0.351-1.859,1.051-2.548c0.701-0.689,1.578-1.035,2.633-1.035
			c0.637,0,1.212,0.128,1.725,0.383C158.229,65.31,158.649,65.666,158.977,66.126z"/>
		<path fill="#FFFFFF" d="M160.486,64.846h0.682v6.898h-0.682V64.846z"/>
		<path fill="#FFFFFF" d="M162.973,71.744v-6.898h0.148l4.541,5.287v-5.287h0.674v6.898h-0.154l-4.504-5.224v5.224H162.973z"/>
		<path fill="#FFFFFF" d="M174.479,66.642h0.649v4.065c0,0.717-0.063,1.24-0.186,1.571c-0.17,0.469-0.465,0.83-0.886,1.083
			c-0.422,0.254-0.927,0.38-1.518,0.38c-0.434,0-0.822-0.062-1.166-0.186c-0.346-0.124-0.626-0.29-0.842-0.499
			c-0.217-0.208-0.416-0.514-0.6-0.914h0.705c0.192,0.338,0.439,0.588,0.744,0.75c0.303,0.162,0.68,0.244,1.128,0.244
			c0.442,0,0.817-0.084,1.122-0.25c0.305-0.167,0.522-0.377,0.653-0.629c0.129-0.252,0.194-0.66,0.194-1.223v-0.262
			c-0.245,0.313-0.545,0.553-0.896,0.719c-0.354,0.168-0.728,0.252-1.124,0.252c-0.464,0-0.901-0.117-1.31-0.35
			s-0.725-0.547-0.947-0.94s-0.334-0.827-0.334-1.299s0.116-0.912,0.348-1.319c0.232-0.408,0.554-0.731,0.964-0.969
			c0.41-0.238,0.843-0.356,1.298-0.356c0.378,0,0.73,0.079,1.057,0.237c0.326,0.157,0.642,0.418,0.945,0.779V66.642z
			 M172.563,67.144c-0.368,0-0.71,0.09-1.025,0.27s-0.563,0.429-0.742,0.745c-0.18,0.318-0.27,0.661-0.27,1.029
			c0,0.561,0.186,1.023,0.557,1.389s0.853,0.549,1.443,0.549c0.597,0,1.076-0.182,1.439-0.545c0.364-0.361,0.546-0.839,0.546-1.43
			c0-0.385-0.083-0.728-0.25-1.029c-0.167-0.301-0.405-0.54-0.71-0.715C173.244,67.23,172.914,67.144,172.563,67.144z"/>
		<path fill="#FFFFFF" d="M176.511,66.642h0.664v0.745c0.197-0.293,0.406-0.513,0.626-0.658s0.448-0.218,0.687-0.218
			c0.18,0,0.371,0.058,0.575,0.173l-0.339,0.554c-0.137-0.06-0.25-0.089-0.344-0.089c-0.216,0-0.425,0.09-0.626,0.27
			c-0.2,0.18-0.354,0.459-0.459,0.837c-0.081,0.29-0.12,0.878-0.12,1.763v1.727h-0.664V66.642z"/>
		<path fill="#FFFFFF" d="M182.241,66.511c0.777,0,1.422,0.284,1.933,0.853c0.465,0.52,0.697,1.134,0.697,1.844
			c0,0.713-0.245,1.336-0.736,1.869c-0.491,0.532-1.122,0.799-1.894,0.799c-0.775,0-1.408-0.267-1.898-0.799
			c-0.491-0.533-0.736-1.156-0.736-1.869c0-0.707,0.232-1.319,0.697-1.838C180.814,66.797,181.46,66.511,182.241,66.511z
			 M182.239,67.152c-0.541,0-1.004,0.202-1.393,0.605c-0.388,0.403-0.582,0.891-0.582,1.463c0,0.369,0.089,0.713,0.266,1.031
			c0.177,0.319,0.416,0.565,0.717,0.739c0.301,0.173,0.631,0.261,0.992,0.261c0.359,0,0.689-0.088,0.99-0.261
			c0.302-0.174,0.541-0.42,0.718-0.739c0.177-0.318,0.265-0.662,0.265-1.031c0-0.572-0.194-1.06-0.584-1.463
			C183.239,67.354,182.775,67.152,182.239,67.152z"/>
		<path fill="#FFFFFF" d="M186.226,66.642h0.65v2.382c0,0.582,0.03,0.982,0.092,1.201c0.094,0.313,0.271,0.56,0.533,0.74
			c0.262,0.182,0.573,0.272,0.936,0.272s0.67-0.089,0.922-0.265c0.252-0.177,0.427-0.409,0.523-0.697
			c0.064-0.196,0.097-0.613,0.097-1.252v-2.382h0.663v2.505c0,0.703-0.08,1.232-0.243,1.589c-0.162,0.356-0.407,0.636-0.733,0.837
			s-0.734,0.303-1.227,0.303c-0.491,0-0.902-0.102-1.231-0.303s-0.575-0.482-0.737-0.844s-0.244-0.904-0.244-1.629V66.642z"/>
		<path fill="#FFFFFF" d="M192.331,66.642h0.65v0.938c0.256-0.357,0.551-0.624,0.885-0.803c0.334-0.178,0.705-0.267,1.117-0.267
			c0.717,0,1.33,0.261,1.839,0.782c0.51,0.523,0.765,1.15,0.765,1.886c0,0.75-0.252,1.388-0.758,1.911
			c-0.505,0.523-1.114,0.785-1.828,0.785c-0.401,0-0.771-0.084-1.107-0.254c-0.336-0.168-0.641-0.42-0.912-0.754v2.742h-0.65V66.642
			z M194.929,67.144c-0.561,0-1.033,0.198-1.418,0.595s-0.576,0.891-0.576,1.48c0,0.387,0.086,0.735,0.257,1.045
			c0.171,0.309,0.417,0.554,0.735,0.734c0.32,0.182,0.656,0.271,1.012,0.271c0.349,0,0.676-0.091,0.983-0.273
			s0.552-0.438,0.733-0.766s0.273-0.672,0.273-1.031c0-0.361-0.09-0.705-0.271-1.029c-0.18-0.325-0.423-0.578-0.729-0.757
			C195.624,67.233,195.29,67.144,194.929,67.144z"/>
		<path fill="#FFFFFF" d="M202.015,64.846h3.418v0.676h-2.736v2.161h2.736v0.675h-2.736v3.387h-0.682V64.846z"/>
		<path fill="#FFFFFF" d="M211.78,66.642v5.103h-0.641v-0.877c-0.271,0.334-0.578,0.586-0.916,0.754
			c-0.339,0.17-0.709,0.254-1.111,0.254c-0.714,0-1.324-0.262-1.83-0.785s-0.758-1.161-0.758-1.911c0-0.735,0.255-1.362,0.766-1.886
			c0.51-0.521,1.123-0.782,1.841-0.782c0.415,0,0.79,0.089,1.125,0.267c0.335,0.179,0.63,0.445,0.884,0.803v-0.938H211.78z
			 M209.185,67.144c-0.361,0-0.695,0.09-1.001,0.27c-0.306,0.179-0.549,0.432-0.729,0.757c-0.182,0.324-0.271,0.668-0.271,1.029
			c0,0.359,0.092,0.703,0.273,1.031s0.428,0.583,0.734,0.766c0.308,0.183,0.637,0.273,0.989,0.273c0.355,0,0.692-0.09,1.011-0.271
			c0.317-0.181,0.563-0.426,0.734-0.734c0.171-0.31,0.257-0.658,0.257-1.045c0-0.59-0.192-1.084-0.577-1.48
			S209.747,67.144,209.185,67.144z"/>
		<path fill="#FFFFFF" d="M213.474,66.642h0.649v0.882c0.226-0.325,0.458-0.563,0.696-0.713c0.328-0.199,0.674-0.3,1.036-0.3
			c0.245,0,0.477,0.048,0.696,0.146c0.221,0.097,0.4,0.226,0.539,0.387c0.139,0.16,0.26,0.391,0.362,0.691
			c0.216-0.4,0.485-0.704,0.81-0.912s0.673-0.312,1.046-0.312c0.349,0,0.657,0.089,0.923,0.267c0.268,0.179,0.465,0.428,0.596,0.746
			c0.129,0.318,0.193,0.797,0.193,1.436v2.785h-0.663v-2.785c0-0.548-0.038-0.924-0.115-1.129c-0.077-0.204-0.209-0.369-0.396-0.494
			s-0.409-0.188-0.668-0.188c-0.314,0-0.602,0.094-0.862,0.281s-0.45,0.438-0.571,0.75c-0.119,0.313-0.18,0.835-0.18,1.566v1.998
			h-0.649v-2.612c0-0.616-0.038-1.034-0.114-1.255c-0.076-0.22-0.207-0.396-0.396-0.529c-0.188-0.133-0.412-0.199-0.672-0.199
			c-0.301,0-0.581,0.092-0.842,0.273c-0.262,0.184-0.455,0.43-0.58,0.739s-0.188,0.783-0.188,1.421v2.162h-0.649V66.642z"/>
		<path fill="#FFFFFF" d="M222.853,64.541c0.146,0,0.273,0.053,0.378,0.16c0.104,0.105,0.157,0.234,0.157,0.384
			c0,0.147-0.053,0.273-0.157,0.38s-0.231,0.159-0.378,0.159c-0.146,0-0.27-0.053-0.375-0.159c-0.104-0.106-0.156-0.232-0.156-0.38
			c0-0.149,0.052-0.278,0.156-0.384C222.583,64.594,222.707,64.541,222.853,64.541z M222.529,66.642h0.649v5.103h-0.649V66.642z"/>
		<path fill="#FFFFFF" d="M224.669,64.672h0.649v7.072h-0.649V64.672z"/>
		<path fill="#FFFFFF" d="M226.363,66.642h0.687l1.734,3.929l1.684-3.929h0.691l-3.01,6.968h-0.687l0.972-2.252L226.363,66.642z"/>
	</g>
</g>
</svg>
